# xmcd CD database file
#
# Track frame offsets:
#	150
#	22116
#	43763
#	56626
#	80220
#	101590
#	120337
#	138761
#	157141
#	176173
#	197617
#	222261
#	249343
#	273586
#	293304
#	313683
#
# Disc length: 4614 seconds
#
# Revision: 1
# Processed by: cddbd v1.5PL3 Copyright (c) Steve Scherf et al.
# Submitted via: CDex 1.51
#
DISCID=e8120410
DTITLE=奥田 民生 - OKUDA TAMIO LIVE SONGS OF THE YEARS/CD DISC 1
DYEAR=2003
DGENRE=Rock
TTITLE0=それはなにかとたずねたら
TTITLE1=コーヒー
TTITLE2=野ばら
TTITLE3=海猫
TTITLE4=手引きのようなもの
TTITLE5=たばこのみ
TTITLE6=人間2
TTITLE7=とくするからだ
TTITLE8=674
TTITLE9=人間
TTITLE10=息子
TTITLE11=愛のために
TTITLE12=カヌー
TTITLE13=イージュー☆ライダー
TTITLE14=恋のかけら
TTITLE15=悩んで学んで
EXTD=YEAR: 2003
EXTT0=
EXTT1=
EXTT2=
EXTT3=
EXTT4=
EXTT5=
EXTT6=
EXTT7=
EXTT8=
EXTT9=
EXTT10=
EXTT11=
EXTT12=
EXTT13=
EXTT14=
EXTT15=
PLAYORDER=
